HIERARCHY
ROOT root
{
	OFFSET	0	13.1	24.9
	CHANNELS 6  Xposition Yposition Zposition Xrotation Yrotation Zrotation
	JOINT spine_1
	{
		OFFSET	0	9.99999	0
		CHANNELS 3  Xrotation Yrotation Zrotation
		JOINT spine_2
		{
			OFFSET	0	112	-10
			CHANNELS 3  Xrotation Yrotation Zrotation
			JOINT spine_3
			{
				OFFSET	0	206.5	19.3
				CHANNELS 3  Xrotation Yrotation Zrotation
				JOINT spine_4
				{
					OFFSET	0	110.4	14.6
					CHANNELS 3  Xrotation Yrotation Zrotation
					JOINT neck_1
					{
						OFFSET	0	71.8	-50.3
						CHANNELS 3  Xrotation Yrotation Zrotation
						JOINT neck_2
						{
							OFFSET	0	86.2	-25.8
							CHANNELS 3  Xrotation Yrotation Zrotation
							JOINT head_ee
							{
								OFFSET	0	179.8	-8.7
								CHANNELS 3  Xrotation Yrotation Zrotation
								End Site
								{
									OFFSET	1	0	0
								}
							}
						}
					}
					JOINT left_clavicle
					{
						OFFSET	-43.2	22.4	-70.8
						CHANNELS 3  Xrotation Yrotation Zrotation
						JOINT left_shoulder
						{
							OFFSET	-93.9	-5.79999	48.7
							CHANNELS 3  Xrotation Yrotation Zrotation
							JOINT left_elbow
							{
								OFFSET	-291.4	-30.8	15.2
								CHANNELS 3  Xrotation Yrotation Zrotation
								JOINT left_lowarm_twist
								{
									OFFSET	-110.7	-3.89999	13.6
									CHANNELS 3  Xrotation Yrotation Zrotation
									JOINT left_hand
									{
										OFFSET	-110.7	-3.89999	13.6
										CHANNELS 3  Xrotation Yrotation Zrotation
										JOINT left_ee
										{
											OFFSET	-80.8	-5.10001	12.1
											CHANNELS 3  Xrotation Yrotation Zrotation
											End Site
											{
												OFFSET	1	0	0
											}
										}
									}
								}
							}
						}
					}
					JOINT right_clavicle
					{
						OFFSET	43.2	22.4	-70.8
						CHANNELS 3  Xrotation Yrotation Zrotation
						JOINT right_shoulder
						{
							OFFSET	93.9	-5.79999	48.7
							CHANNELS 3  Xrotation Yrotation Zrotation
							JOINT right_elbow
							{
								OFFSET	291.4	-30.8	15.2
								CHANNELS 3  Xrotation Yrotation Zrotation
								JOINT right_lowarm_twist
								{
									OFFSET	110.7	-3.89999	13.6
									CHANNELS 3  Xrotation Yrotation Zrotation
									JOINT right_hand
									{
										OFFSET	110.7	-3.89999	13.6
										CHANNELS 3  Xrotation Yrotation Zrotation
										JOINT right_ee
										{
											OFFSET	80.8	-5.10001	12.1
											CHANNELS 3  Xrotation Yrotation Zrotation
											End Site
											{
												OFFSET	1	0	0
											}
										}
									}
								}
							}
						}
					}
				}
			}
		}
	}
	JOINT left_hip
	{
		OFFSET	-82.8	-127.5	0.300001
		CHANNELS 3  Xrotation Yrotation Zrotation
		JOINT left_knee
		{
			OFFSET	-28.2	-396.7	2.2
			CHANNELS 3  Xrotation Yrotation Zrotation
			JOINT left_ankle
			{
				OFFSET	-11.7	-411.3	35.4
				CHANNELS 3  Xrotation Yrotation Zrotation
				JOINT left_toes
				{
					OFFSET	0	-60	-88.6
					CHANNELS 3  Xrotation Yrotation Zrotation
					JOINT left_foot_ee
					{
						OFFSET	-22.5	-16.5	-42.2
						CHANNELS 3  Xrotation Yrotation Zrotation
						End Site
						{
							OFFSET	1	0	0
						}
					}
				}
			}
		}
	}
	JOINT right_hip
	{
		OFFSET	82.8	-127.5	0.300001
		CHANNELS 3  Xrotation Yrotation Zrotation
		JOINT right_knee
		{
			OFFSET	28.2	-396.7	2.2
			CHANNELS 3  Xrotation Yrotation Zrotation
			JOINT right_ankle
			{
				OFFSET	11.7	-411.3	35.4
				CHANNELS 3  Xrotation Yrotation Zrotation
				JOINT right_toes
				{
					OFFSET	0	-60	-88.6
					CHANNELS 3  Xrotation Yrotation Zrotation
					JOINT right_foot_ee
					{
						OFFSET	22.5	-16.5	-42.2
						CHANNELS 3  Xrotation Yrotation Zrotation
						End Site
						{
							OFFSET	1	0	0
						}
					}
				}
			}
		}
	}
}
MOTION
Frames: 9
Frame Time: 0.02
1143.41124762 709.861 -1738.35157053 -2.14057562808 37.7870285227 -2.58947227758 1.6083 0.117165 -0.175361 1.60831 0.128087 -0.16755 1.60793 0.156537 -0.141334 1.60792 0.132251 -0.164282 -2.31095 9.64029 -0.364476 -2.14944 17.7437 0.91016 -0.0 0.0 -0.0 6.65113 -1.18508 12.892 -15.7148 -4.46619 72.1706 0.235257 -6.64738 0.0136624 4.41755 0.134564 -0.548078 3.50775 -16.1057 16.847 -0.0 0.0 -0.0 6.49298 -4.7655 -12.5837 10.573 18.4587 -71.8032 0.598711 16.5196 -0.0869144 -12.7475 0.619334 -1.50427 1.4902 -5.64274 -12.2161 0.0 0.0 0.0 18.7569 -0.6172 5.61985 -53.3103 -1.52253 7.7485 31.3328 11.3347 -4.04634 38.4635 -0.0 -0.0 -0.0 0.0 -0.0 19.1641 -18.4833 5.7595 -20.2685 -0.29235 -3.08042 18.5235 10.3202 2.67017 18.589 -0.0 -0.0 0.0 0.0 0.0 
1132.77872629 712.218 -1745.125692 -2.46468996459 39.5663569248 -2.28440378931 1.68078 0.15312 -0.275931 1.68081 0.170368 -0.265629 1.68001 0.215734 -0.230311 1.67997 0.176653 -0.261491 -2.53821 9.67573 1.31095 -2.41435 16.5208 2.7011 -0.0 0.0 -0.0 6.56648 -0.336057 12.7315 -16.2382 -4.45025 72.2787 0.199931 -5.65626 0.00987663 4.51595 0.137079 -0.560396 3.18967 -14.5555 15.3964 -0.0 0.0 -0.0 7.37195 -0.0606725 -14.331 12.2611 16.9217 -68.971 0.513193 14.2638 -0.0642121 -10.1071 0.463729 -1.20445 1.60813 -3.15417 -12.0541 0.0 0.0 0.0 22.423 -2.12346 5.50731 -55.2843 -1.71286 7.9858 32.4242 12.8306 -4.17219 38.1595 -0.0 -0.0 -0.0 0.0 -0.0 18.93 -18.3681 5.81745 -20.8824 -0.284106 -3.17426 17.9341 8.94031 2.57376 17.0786 -0.0 -0.0 0.0 0.0 0.0 
1113.40593574 714.644 -1751.42082281 -1.96113659948 41.0281272579 -1.97790846284 1.50598 0.171382 -0.373541 1.50603 0.194804 -0.361879 1.50479 0.258207 -0.319741 1.5047 0.20447 -0.356506 -2.61902 9.68195 3.7762 -2.50664 14.6098 5.28293 -0.0 0.0 -0.0 5.88778 2.05685 11.4275 -16.5617 -3.84009 72.7862 0.199734 -5.65073 0.00985733 4.83665 0.145127 -0.600573 2.79036 -12.6279 13.5396 -0.0 0.0 -0.0 8.52701 3.5427 -16.7045 11.4005 15.9668 -66.2063 0.462348 12.9004 -0.052271 -9.28754 0.418263 -1.10998 1.81777 1.13038 -11.782 0.0 0.0 0.0 29.8364 -6.68288 5.14515 -57.889 -1.9764 8.28878 33.3869 15.9717 -4.30693 37.3204 -0.0 -0.0 -0.0 0.0 -0.0 16.8098 -20.3842 5.28686 -20.3925 -0.290766 -3.09939 20.1984 8.08858 2.85467 16.7561 -0.0 -0.0 0.0 0.0 0.0 
1089.76961955 714.253 -1749.22438065 -2.66441065264 43.3483227073 -1.62132298032 1.71225 0.255629 -0.521173 1.71235 0.288274 -0.503851 1.70977 0.37468 -0.443376 1.70962 0.299956 -0.496985 -3.49113 9.78126 5.80759 -3.36276 13.355 7.47179 -0.0 0.0 -0.0 4.94232 3.49451 9.64899 -17.8959 -3.75623 74.6843 0.211648 -5.9854 0.011065 4.66136 0.140756 -0.578608 2.62584 -11.9603 12.7102 -0.0 0.0 -0.0 9.05238 6.44408 -17.8149 11.5396 15.4564 -63.7807 0.427617 11.9603 -0.0447947 -8.32719 0.36672 -0.998482 1.97815 3.54424 -11.8939 0.0 0.0 0.0 34.6379 -9.84178 6.72275 -56.4186 -1.82593 8.1192 33.4182 18.3537 -4.34623 36.5344 -0.0 -0.0 -0.0 0.0 -0.0 14.7208 -20.604 4.74039 -18.5674 -0.309937 -2.82001 20.6076 7.22024 2.89494 16.5635 -0.0 -0.0 0.0 0.0 0.0 
1066.47852772 713.444 -1757.83024933 -3.6163134397 47.1474391601 -0.903714103362 2.07479 0.17672 -0.439085 2.07487 0.204301 -0.42695 2.07332 0.275741 -0.384698 2.07317 0.211525 -0.423417 -4.31181 9.04521 6.23697 -4.18998 11.8253 7.85466 -0.0 0.0 -0.0 4.48018 5.84264 8.84712 -20.4788 -3.64694 73.0314 0.210155 -5.94349 0.0109098 4.77422 0.143577 -0.592748 2.54425 -11.4089 12.3978 -0.0 0.0 -0.0 9.56408 9.58187 -18.8892 13.3236 15.6751 -61.3378 0.415664 11.6352 -0.042351 -7.6798 0.333035 -0.922846 2.46047 6.42226 -14.0164 0.0 0.0 0.0 38.1516 -13.7646 8.31083 -57.2595 -1.91144 8.21664 33.6238 19.7736 -4.39325 36.0768 -0.0 -0.0 -0.0 0.0 -0.0 13.0485 -20.6289 4.20159 -16.6409 -0.320507 -2.52464 24.9147 6.98765 3.41689 17.5066 -0.0 -0.0 0.0 0.0 0.0 
1038.44186793 706.645 -1768.97012207 -5.9830038141 52.0334229597 1.29885563023 2.76827 -0.00606914 -0.415407 2.76837 0.0203764 -0.414952 2.7682 0.0876251 -0.406106 2.76797 0.0223891 -0.414848 -4.16594 8.46028 5.77073 -4.06002 11.0824 7.27631 -0.0 0.0 -0.0 2.86904 7.93514 6.0228 -20.5969 -4.30821 72.8471 0.241725 -6.82844 0.0144213 5.85728 0.169238 -0.728719 2.36305 -9.25344 12.1096 -0.0 0.0 -0.0 10.1279 11.2849 -20.0934 14.2259 15.6575 -57.5777 0.459029 12.8108 -0.0515325 -7.66072 0.332054 -0.920611 2.1579 8.75842 -10.914 0.0 0.0 0.0 42.3372 -20.7729 11.3688 -52.3298 -1.43107 7.62825 28.985 24.2726 -3.97245 34.7202 -0.0 -0.0 -0.0 0.0 -0.0 10.8486 -23.376 3.46259 -14.0951 -0.319237 -2.13407 29.3477 6.1893 3.90853 19.062 -0.0 -0.0 0.0 0.0 0.0 
1009.35495867 708.146 -1787.63222751 -6.57200219076 55.5294339945 3.54850270354 2.77119 -0.256669 -0.473417 2.77129 -0.226025 -0.48879 2.77321 -0.143532 -0.519038 2.77291 -0.223702 -0.489857 -5.50864 6.68999 5.34784 -5.43088 8.35368 6.61782 -0.0 0.0 -0.0 3.69035 12.7037 7.63735 -21.5471 -2.60037 67.4221 0.286388 -8.07475 0.020214 7.0254 0.194027 -0.875874 2.13421 -5.97692 11.948 -0.0 0.0 -0.0 10.5393 10.7161 -21.0103 13.2984 15.4819 -55.3677 0.620294 17.081 -0.093153 -9.88802 0.451441 -1.17926 2.29745 13.5671 -9.72725 0.0 0.0 0.0 44.7078 -28.0628 11.9506 -45.6197 -0.862426 6.76637 16.6361 23.8269 -2.40308 32.4657 -0.0 -0.0 -0.0 0.0 -0.0 8.93403 -23.5448 2.40557 -15.0486 -0.321745 -2.28034 30.3641 4.97435 4.00089 17.9417 -0.0 -0.0 0.0 0.0 0.0 
989.684663042 706.677 -1789.51021746 -5.17485340093 56.2547904001 2.57786628533 2.7499 -0.274055 -0.564991 2.75005 -0.237548 -0.581284 2.75245 -0.139641 -0.612225 2.752 -0.234576 -0.582489 -6.84471 5.78253 4.84204 -6.78601 7.22485 5.9967 -0.0 0.0 -0.0 4.60639 14.8256 9.17896 -22.1213 -2.10293 65.0088 0.230747 -6.52107 0.0131453 7.99984 0.212406 -0.998992 1.90861 -6.82823 10.0351 -0.0 0.0 -0.0 10.345 11.1289 -20.5748 14.5931 16.0595 -56.0571 0.641942 17.6407 -0.0996125 -10.003 0.457874 -1.19248 2.18232 15.4418 -8.08907 0.0 0.0 0.0 46.2958 -29.8445 13.0732 -43.2794 -0.68847 6.45115 12.6345 25.989 -1.87326 31.2548 -0.0 -0.0 -0.0 0.0 -0.0 6.72411 -24.2081 2.60849 -14.2747 -0.319895 -2.16162 31.2316 5.14581 4.09509 18.011 -0.0 -0.0 0.0 0.0 0.0 
955.534172374 696.009 -1811.50241455 -6.00489768787 57.1615114198 3.44794014853 2.88002 -0.0647451 -0.408405 2.88011 -0.0386263 -0.411697 2.88037 0.0280701 -0.412551 2.88013 -0.0374364 -0.411807 -7.37432 5.04954 4.89814 -7.31424 5.88505 5.92397 -0.0 0.0 -0.0 3.62221 17.5737 7.63341 -21.6791 -2.08082 64.2955 0.281109 -7.92782 0.0194791 8.70543 0.224405 -1.08832 1.82956 -5.38536 10.105 -0.0 0.0 -0.0 11.3564 9.69653 -22.8309 14.7963 14.947 -54.2011 0.760486 20.6425 -0.138497 -9.75078 0.443794 -1.16346 2.3815 19.6568 -7.45721 0.0 0.0 0.0 45.5674 -36.3186 12.5513 -34.9678 -0.17804 5.28112 4.54837 26.7269 -0.693643 28.8508 -0.0 -0.0 -0.0 0.0 -0.0 4.59191 -24.621 2.62982 -15.2307 -0.321948 -2.30828 35.8061 7.14025 4.58596 18.1258 -0.0 -0.0 0.0 0.0 0.0 
